<svg width="29" height="40" viewBox="0 0 29 40" fill="none" xmlns="http://www.w3.org/2000/svg">
<path d="M23.5618 18.5138C24.7002 17.9741 25.628 17.0726 26.2005 15.9499C26.773 14.8272 26.9579 13.5466 26.7265 12.3077C26.3052 7.93846 22.5315 6.46154 17.7675 6.05846V0H14.0768V5.89846C13.1049 5.89846 12.1146 5.91692 11.1304 5.93846V0H7.43976V6.05846C6.64012 6.07385 5.85585 6.08923 5.09004 6.08923V6.07077H0V10.0092C0 10.0092 2.72494 9.95692 2.68188 10.0092C3.17706 9.94687 3.6769 10.0815 4.07381 10.3842C4.47072 10.6869 4.73294 11.1335 4.80401 11.6277V28.2277C4.79462 28.3999 4.75118 28.5686 4.6762 28.7239C4.60122 28.8793 4.49619 29.0182 4.36719 29.1327C4.23819 29.2471 4.08779 29.3348 3.92468 29.3908C3.76157 29.4467 3.58899 29.4697 3.41694 29.4585C3.46307 29.5015 0.731984 29.4585 0.731984 29.4585L0 33.8615H4.80401C5.699 33.8615 6.5786 33.8615 7.43976 33.8831V40H11.1304V33.9354C12.1454 33.9569 13.1234 33.9662 14.0799 33.9631V40H17.7705V33.8769C23.9739 33.52 28.3166 31.96 28.8425 26.1354C29.0366 25.2848 29.0515 24.403 28.8861 23.5464C28.7206 22.6897 28.3786 21.8769 27.8818 21.1598C27.3849 20.4428 26.7442 19.8371 26.0004 19.3816C25.2566 18.926 24.4261 18.6305 23.5618 18.5138ZM11.2319 10.2738C13.3141 10.2738 19.8588 9.61231 19.8619 13.9662C19.8619 18.1323 13.3171 17.6585 11.2319 17.6585V10.2738ZM11.2319 29.4738V21.3569C13.7323 21.3569 21.575 20.6369 21.5781 25.4154C21.5658 29.9938 13.717 29.4738 11.2165 29.4738H11.2319Z" fill="#22292E"/>
</svg>
