<svg xmlns="http://www.w3.org/2000/svg" viewBox="0 0 120 120"><g id="Layer_2" data-name="Layer 2"><g id="Layer_1-2" data-name="Layer 1"><g id="Layer_2-2" data-name="Layer 2"><g id="Layer_1-2-2" data-name="Layer 1-2"><path d="M60,14a46,46,0,1,0,46,46A46,46,0,0,0,60,14ZM43,64a4,4,0,1,1,4-4A4,4,0,0,1,43,64Zm17,0a4,4,0,1,1,4-4A4,4,0,0,1,60,64Zm17,0a4,4,0,1,1,4-4A4,4,0,0,1,77,64Z" style="fill:#ffc44e"/><path d="M60,0a60,60,0,1,0,60,60A60,60,0,0,0,60,0Zm0,110a50,50,0,1,1,50-50A50,50,0,0,1,60,110Z" style="fill:#ffc44e"/><path d="M60,10a50,50,0,1,0,50,50A50,50,0,0,0,60,10Zm0,96a46,46,0,1,1,46-46A46,46,0,0,1,60,106Z" style="fill:#ffc44e"/><path d="M60,10a50,50,0,1,0,50,50A50,50,0,0,0,60,10Zm0,96a46,46,0,1,1,46-46A46,46,0,0,1,60,106Z" style="fill:#c91111;opacity:0.20000000298023224;isolation:isolate"/><circle cx="43" cy="60" r="4" style="fill:#ffc44e"/><circle cx="43" cy="60" r="4" style="fill:#c91111;opacity:0.30000001192092896;isolation:isolate"/><circle cx="60" cy="60" r="4" style="fill:#ffc44e"/><circle cx="60" cy="60" r="4" style="fill:#c91111;opacity:0.30000001192092896;isolation:isolate"/><circle cx="77" cy="60" r="4" style="fill:#ffc44e"/><circle cx="77" cy="60" r="4" style="fill:#c91111;opacity:0.30000001192092896;isolation:isolate"/></g></g></g></g></svg>